<?xml version="1.0" encoding="utf-8" standalone="no"?><!DOCTYPE svg PUBLIC "-//W3C//DTD SVG 20010904//EN" "http://www.w3.org/TR/2001/REC-SVG-20010904/DTD/svg10.dtd"><svg xmlns="http://www.w3.org/2000/svg" width="418" height="315" xmlns:xlink="http://www.w3.org/1999/xlink"><source><![CDATA[
participant User
participant View
participant Model
participant Controller



User->Controller: Uses
View -> User:   Sees
Model->View: Updates
Controller -> Model: Manipulates
]]></source><desc></desc><defs><marker viewBox="0 0 5 5" markerWidth="5" markerHeight="5" orient="auto" refX="5" refY="2.5" id="markerArrowBlock"><path d="M 0 0 L 5 2.5 L 0 5 z"></path></marker><marker viewBox="0 0 9.6 16" markerWidth="4" markerHeight="16" orient="auto" refX="9.6" refY="8" id="markerArrowOpen"><path d="M 9.6,8 1.92,16 0,13.7 5.76,8 0,2.286 1.92,0 9.6,8 z"></path></marker></defs><g class="title"></g><g class="actor"><path d="M10,20C20.2,22.5 25.3,17.5 73.7,20.0C72.0,50.5 75.4,53.1 73.7,62.5C23.6,60.0 57.0,65.0 10.0,62.5C8.3,30.7 11.7,40.7 10.0,20.0" stroke="#000000" fill="#ffffff" style="stroke-width: 2;"></path><text x="20" y="44" style="font-size: 16px; font-family: danielbd;"><tspan x="20">User</tspan></text></g><g class="actor"><path d="M10,252.5C47.0,255.0 35.1,250.0 73.7,252.5C72.0,288.2 75.4,272.4 73.7,295.0C28.5,292.5 63.5,297.5 10.0,295.0C8.3,264.8 11.7,273.3 10.0,252.5" stroke="#000000" fill="#ffffff" style="stroke-width: 2;"></path><text x="20" y="276.5" style="font-size: 16px; font-family: danielbd;"><tspan x="20">User</tspan></text></g><path d="M41.8,62.5C34.2,222.1 49.4,92.9 41.8,252.5" stroke="#000000" fill="none" style="stroke-width: 2;"></path><g class="actor"><path d="M93.671875,20C103.0,17.7 107.6,22.3 151.8,20.0C150.1,40.4 153.5,39.0 151.8,62.5C123.4,60.2 130.6,64.8 93.7,62.5C95.4,30.2 92.0,52.3 93.7,20.0" stroke="#000000" fill="#ffffff" style="stroke-width: 2;"></path><text x="103.671875" y="44" style="font-size: 16px; font-family: danielbd;"><tspan x="103.671875">View</tspan></text></g><g class="actor"><path d="M93.671875,252.5C110.3,254.8 137.9,250.2 151.8,252.5C153.5,268.9 150.1,284.8 151.8,295.0C128.0,292.7 120.5,297.3 93.7,295.0C95.4,284.8 92.0,274.8 93.7,252.5" stroke="#000000" fill="#ffffff" style="stroke-width: 2;"></path><text x="103.671875" y="276.5" style="font-size: 16px; font-family: danielbd;"><tspan x="103.671875">View</tspan></text></g><path d="M122.8,62.5C115.2,175.9 130.4,222.1 122.8,252.5" stroke="#000000" fill="none" style="stroke-width: 2;"></path><g class="actor"><path d="M181.25,20C197.9,22.8 202.2,17.2 250.7,20.0C252.4,37.3 249.0,45.8 250.7,62.5C197.9,59.7 192.4,65.3 181.3,62.5C182.9,26.8 179.6,55.7 181.3,20.0" stroke="#000000" fill="#ffffff" style="stroke-width: 2;"></path><text x="191.25" y="44" style="font-size: 16px; font-family: danielbd;"><tspan x="191.25">Model</tspan></text></g><g class="actor"><path d="M181.25,252.5C197.9,255.3 234.0,249.7 250.7,252.5C249.0,284.5 252.4,272.5 250.7,295.0C198.6,297.8 203.5,292.2 181.3,295.0C179.6,273.8 182.9,279.1 181.3,252.5" stroke="#000000" fill="#ffffff" style="stroke-width: 2;"></path><text x="191.25" y="276.5" style="font-size: 16px; font-family: danielbd;"><tspan x="191.25">Model</tspan></text></g><path d="M216.0,62.5C223.6,222.1 208.4,143.0 216.0,252.5" stroke="#000000" fill="none" style="stroke-width: 2;"></path><g class="actor"><path d="M276.75,20C350.7,24.5 303.6,15.5 388.4,20.0C390.1,47.8 386.7,30.2 388.4,62.5C294.6,67.0 327.5,58.0 276.8,62.5C278.4,26.8 275.1,55.7 276.8,20.0" stroke="#000000" fill="#ffffff" style="stroke-width: 2;"></path><text x="286.75" y="44" style="font-size: 16px; font-family: danielbd;"><tspan x="286.75">Controller</tspan></text></g><g class="actor"><path d="M276.75,252.5C297.7,248.0 370.6,257.0 388.4,252.5C390.1,278.1 386.7,279.2 388.4,295.0C344.3,290.5 294.6,299.5 276.8,295.0C278.4,259.3 275.1,278.3 276.8,252.5" stroke="#000000" fill="#ffffff" style="stroke-width: 2;"></path><text x="286.75" y="276.5" style="font-size: 16px; font-family: danielbd;"><tspan x="286.75">Controller</tspan></text></g><path d="M332.6,62.5C325.0,126.8 340.2,137.5 332.6,252.5" stroke="#000000" fill="none" style="stroke-width: 2;"></path><g class="signal"><text x="166.609375" y="90.25" style="font-size: 16px; font-family: danielbd;"><tspan x="166.609375">Uses</tspan></text><path d="M41.8,105.0C165.0,93.4 198.9,116.6 332.6,105.0" stroke="#000000" fill="none" style="stroke-width: 2; marker-end: url(&quot;#markerArrowBlock&quot;);"></path></g><g class="signal"><text x="64.8046875" y="132.75" style="font-size: 16px; font-family: danielbd;"><tspan x="64.7734375">Sees</tspan></text><path d="M122.8,147.5C61.8,150.7 109.8,144.3 41.8,147.5" stroke="#000000" fill="none" style="stroke-width: 2; marker-end: url(&quot;#markerArrowBlock&quot;);"></path></g><g class="signal"><text x="132.7578125" y="175.25" style="font-size: 16px; font-family: danielbd;"><tspan x="132.7578125">Updates</tspan></text><path d="M216.0,190.0C154.2,186.3 145.1,193.7 122.8,190.0" stroke="#000000" fill="none" style="stroke-width: 2; marker-end: url(&quot;#markerArrowBlock&quot;);"></path></g><g class="signal"><text x="225.9609375" y="217.75" style="font-size: 16px; font-family: danielbd;"><tspan x="225.9609375">Manipulates</tspan></text><path d="M332.6,232.5C244.0,237.2 234.6,227.8 216.0,232.5" stroke="#000000" fill="none" style="stroke-width: 2; marker-end: url(&quot;#markerArrowBlock&quot;);"></path></g></svg>